PathFileType	4	(X/Y/Z)	C:/Users/opensim2020/Desktop/walking_exp_matlab/subject06_walking22_straight_04.trc																																																																																																																																		
DataRate	CameraRate	NumFrames	NumMarkers	Units	OrigDataRate	OrigDataStartFrame	OrigNumFrames																																																																																																																														
100	100	7	44	mm	100	2251	102																																																																																																																														
Frame#	Time	LFHD			RFHD			LBHD			RBHD			C7			T10			CLAV			STRN			RBAK			LSHO			LUPA			LELB			LFRM			LWRA			LWRB			LFIN			RSHO			RUPA			RELB			RFRM			RWRA			RWRB			RFIN			LASI			RASI			LPSI			RPSI			LTHI			LKNE			LTIB			LANK			LHEE			LTOE			RTHI			RKNE			RTIB			RANK			RHEE			RTOE			*39			*40			*41			*42			*43		
		X1	Y1	Z1	X2	Y2	Z2	X3	Y3	Z3	X4	Y4	Z4	X5	Y5	Z5	X6	Y6	Z6	X7	Y7	Z7	X8	Y8	Z8	X9	Y9	Z9	X10	Y10	Z10	X11	Y11	Z11	X12	Y12	Z12	X13	Y13	Z13	X14	Y14	Z14	X15	Y15	Z15	X16	Y16	Z16	X17	Y17	Z17	X18	Y18	Z18	X19	Y19	Z19	X20	Y20	Z20	X21	Y21	Z21	X22	Y22	Z22	X23	Y23	Z23	X24	Y24	Z24	X25	Y25	Z25	X26	Y26	Z26	X27	Y27	Z27	X28	Y28	Z28	X29	Y29	Z29	X30	Y30	Z30	X31	Y31	Z31	X32	Y32	Z32	X33	Y33	Z33	X34	Y34	Z34	X35	Y35	Z35	X36	Y36	Z36	X37	Y37	Z37	X38	Y38	Z38	X39	Y39	Z39	X40	Y40	Z40	X41	Y41	Z41	X42	Y42	Z42	X43	Y43	Z43	X44	Y44	Z44
																																																																																																																																					
64	0.63	186.87823	1614.01978	907.96387	199.65802	1607.09766	1039.66687	49.71282	1572.78735	923.75226	64.73226	1570.30005	1052.02319	43.67788	1407.45239	970.78748	26.10677	1075.52942	976.27838	156.07394	1332.7865	976.45221	202.2718	1161.07471	962.01044	-29.58884	1230.61121	1031.29126	106.02155	1369.27905	813.47211	154.51593	1179.03064	731.41614	187.86923	1072.58435	712.76746	304.88303	980.2002	703.71869	421.62125	952.15894	761.83533	391.92215	900.2395	725.33411	480.12268	884.76129	731.12451	92.65555	1360.09497	1133.74805	-20.39252	1201.03101	1210.69189	-63.82515	1086.51282	1231.02283	-108.42319	975.48547	1255.98743	-119.45935	821.58807	1243.07117	-173.03084	852.77924	1271.25696	-180.4218	767.98364	1279.93506	195.10701	918.06714	855.40137	223.45416	935.53241	1077.8999	42.11358	946.62793	906.58209	68.25709	954.3252	1072.90356	67.01781	610.8327	817.08435	29.34961	449.11295	839.18311	-161.21858	272.89453	853.51794	-278.2348	147.8739	897.88562	-316.28534	163.11774	943.35345	-188.0562	35.90927	902.40625	258.60968	618.11237	1152.06274	310.96606	507.58044	1122.14258	347.23224	245.0325	1127.39087	388.23645	64.76746	1086.03003	356.37753	40.38997	1037.74841	543.13049	46.35614	1090.96423	97.34551	1663.23438	975.92975	NaN	NaN	NaN	NaN	NaN	NaN	NaN	NaN	NaN	NaN	NaN	NaN
65	0.64	200.52203	1615.30896	908.89008	213.82158	1608.70691	1040.51941	63.84715	1573.39771	925.48694	79.15438	1571.33496	1053.59302	58.81293	1408.4198	972.5603	42.61998	1075.46948	976.06183	171.30302	1334.01538	977.69055	218.38249	1162.46448	962.79175	-13.54623	1230.12915	1033.32092	120.52988	1369.85303	814.30109	168.86516	1178.73645	732.92633	202.03004	1072.11328	714.29767	318.72656	979.4989	705.46466	435.62631	951.40344	763.40887	405.71194	899.50714	726.86047	493.87369	883.92902	732.87866	108.51588	1360.41833	1135.39014	-3.447	1200.66931	1212.11597	-46.50856	1085.99512	1232.46448	-90.69123	974.65894	1257.22607	-101.20532	820.64191	1243.97864	-154.87633	851.6333	1272.04248	-161.78461	766.81134	1280.64014	212.76199	918.28253	857.0351	241.04843	936.81415	1079.12195	59.64725	946.65076	906.22284	84.60503	956.45093	1072.91309	86.57256	609.63934	818.36035	50.35268	447.77762	839.30682	-145.56879	278.95029	855.39111	-265.65137	157.46172	899.35919	-301.59848	174.73952	945.96014	-186.03052	37.04194	902.58398	275.8306	621.8028	1154.89478	329.21173	511.73083	1125.17102	361.63123	248.5489	1129.88074	390.2514	64.85651	1086.57813	357.48477	41.24932	1038.92847	545.13751	41.40781	1090.82861	110.90019	1664.31287	977.0918	NaN	NaN	NaN	NaN	NaN	NaN	NaN	NaN	NaN	NaN	NaN	NaN
66	0.65	214.29984	1616.55884	909.79266	228.14322	1610.2251	1041.31555	77.68993	1574.40674	926.77795	93.71382	1572.54187	1055.22522	74.41484	1409.75439	973.70612	58.7898	1076.06592	975.88788	186.60832	1335.31567	978.68341	234.25192	1163.89685	963.50494	2.38047	1230.66296	1035.30676	135.72621	1370.8728	815.09326	182.67786	1178.93103	734.37653	215.5983	1072.0022	715.91534	332.04654	978.65967	707.08112	448.80069	950.15674	764.85394	418.64322	898.45874	728.40381	506.75537	882.49731	734.45667	124.56542	1361.0415	1136.76465	13.9531	1200.42224	1214.04419	-28.3887	1085.38684	1233.9281	-72.02445	973.77832	1258.52551	-82.13742	819.82605	1244.91284	-135.6571	850.3205	1273.30017	-142.06834	765.48138	1281.33191	229.81941	918.7533	858.99432	257.77109	939.07391	1080.33936	76.77551	946.58014	905.39215	100.48335	958.6546	1072.43994	106.75464	608.39264	819.82336	72.37441	446.60522	839.39972	-127.99947	285.07669	857.56409	-251.74548	167.41447	900.54883	-285.5687	186.53888	947.78839	-181.90053	39.67969	902.8266	293.00293	626.14172	1156.40833	347.37958	515.7337	1126.69556	372.05225	250.49796	1131.57605	391.73831	66.66949	1086.28015	358.59222	42.18923	1039.32983	546.91681	38.55188	1090.89771	124.93592	1665.49475	978.1806	NaN	NaN	NaN	NaN	NaN	NaN	NaN	NaN	NaN	NaN	NaN	NaN
67	0.66	228.1629	1617.93799	910.61816	242.54091	1611.77246	1042.13574	91.67139	1575.39429	928.19116	108.35068	1573.87256	1056.83423	89.73857	1410.88757	975.05475	74.49878	1077.17224	975.87134	202.01442	1336.66199	979.44409	249.98492	1165.28088	964.099	18.16693	1231.81787	1037.07434	151.22295	1372.18665	815.98364	196.27481	1179.55078	735.75726	228.97983	1072.53589	717.8833	344.6778	978.01062	708.83118	461.24817	948.53357	766.32135	430.5174	897.0434	729.91284	518.49261	880.32672	735.7085	140.67297	1361.96436	1137.82129	31.84772	1200.01208	1215.58008	-9.66062	1084.78137	1235.36243	-52.39999	972.88074	1259.91797	-61.7505	818.81262	1245.54968	-114.74301	848.96094	1274.94922	-121.38364	763.93488	1282.09314	246.5827	919.41559	861.08673	273.51251	942.14166	1081.42163	93.3858	946.62335	904.48718	115.17182	960.74139	1071.40466	127.03703	607.40582	821.28119	95.64882	445.38541	839.85748	-108.84916	291.1189	858.41327	-236.00381	177.53104	901.63611	-267.7471	198.80208	949.36285	-175.7952	44.05524	903.87494	310.51099	630.67169	1157.53577	363.75763	518.74225	1127.7179	379.51035	251.97122	1132.8479	394.4382	67.61057	1086.11804	359.86887	43.18713	1039.95703	549.12952	36.23921	1089.73987	138.97551	1666.63806	979.41541	NaN	NaN	NaN	NaN	NaN	NaN	NaN	NaN	NaN	NaN	NaN	NaN
68	0.67	242.09758	1619.67688	911.44385	256.89917	1613.46558	1042.95715	106.01549	1576.1925	929.65167	122.90936	1574.82666	1058.07446	104.90443	1412.05481	975.99634	89.54382	1078.82996	976.04382	217.20601	1338.02612	980.10626	265.58542	1166.70093	964.61945	33.80982	1233.40015	1038.35059	166.69783	1373.70569	816.86627	209.95764	1180.48096	737.14301	242.2748	1073.32251	719.9342	356.63779	977.38037	710.67102	472.96991	946.47803	767.66071	441.61209	895.27112	731.21277	529.46985	877.67822	736.841	156.8047	1363.13843	1138.63708	49.82015	1199.77917	1217.20166	9.63643	1084.12512	1236.67908	-32.03294	971.8941	1261.35071	-40.8679	817.83832	1246.28455	-93.37096	847.4494	1276.70325	-99.53077	762.1875	1282.95715	262.92236	920.26294	863.11584	288.35754	945.54895	1082.62634	109.33743	947.1427	903.87195	129.31715	962.33563	1070.60608	148.20175	606.36798	822.91199	120.34956	443.99289	840.81329	-87.44317	296.1666	859.8277	-218.21034	187.70897	902.39276	-248.00671	211.1097	950.276	-168.15791	49.32967	904.79865	326.9563	634.44348	1158.91211	378.10864	520.32538	1128.84375	388.33585	252.72466	1133.00964	397.16061	67.94524	1085.7771	361.00284	43.85671	1040.13147	551.04437	34.69551	1088.57007	152.84746	1667.78406	980.57562	NaN	NaN	NaN	NaN	NaN	NaN	NaN	NaN	NaN	NaN	NaN	NaN
69	0.68	255.92888	1621.60754	912.21735	271.22534	1615.27856	1043.71863	120.03291	1577.44324	930.57513	137.57237	1575.72961	1059.17432	119.96926	1413.37976	976.68646	104.24172	1080.85754	976.33331	232.51266	1339.62195	980.54596	280.88461	1168.25598	965.00037	49.20165	1235.32324	1039.14734	182.03983	1375.3739	817.67743	223.73268	1181.62354	738.47064	255.0244	1074.33289	721.99371	368.03513	976.76886	712.39032	484.12659	944.06036	769.00519	451.86792	893.21027	732.66138	539.31543	874.39343	737.7868	172.86195	1364.58801	1139.27588	67.85528	1199.66577	1218.71069	29.05603	1083.59326	1238.04285	-11.04773	970.90198	1262.79822	-18.85329	816.82062	1246.88721	-71.17269	845.81213	1278.59961	-76.57047	760.32916	1283.92261	278.8176	921.28833	864.96252	302.33859	949.12689	1084.16772	124.93971	947.61993	903.79968	143.34471	963.81891	1070.40149	169.75984	605.43372	824.13635	146.09427	442.49701	842.26611	-64.13049	300.52704	860.85297	-198.44394	197.0274	902.94421	-225.86552	222.43567	951.20087	-158.79317	54.73732	905.63141	341.5159	636.24207	1159.58704	391.16467	521.00842	1129.59814	397.06525	252.66534	1132.44812	398.75702	68.08379	1085.05908	361.60315	44.37302	1039.79944	552.16803	33.71713	1088.35718	166.54059	1669.08777	981.78271	NaN	NaN	NaN	NaN	NaN	NaN	NaN	NaN	NaN	NaN	NaN	NaN
70	0.69	269.95038	1623.90906	913.03168	285.69998	1617.26843	1044.37646	134.61891	1578.64575	931.79742	152.31084	1576.85242	1060.08154	134.93655	1415.1781	977.53479	118.69636	1082.98413	976.74066	247.65463	1341.44556	980.83179	295.88022	1170.00989	965.27118	64.36397	1237.64819	1039.68689	197.04915	1377.16235	818.32867	237.51958	1182.94666	739.70752	267.36752	1075.32153	723.85931	379.02805	976.02264	713.86493	494.46353	941.25574	770.23352	461.12204	890.89441	734.36993	548.18561	870.65985	738.70569	188.71242	1366.34766	1139.84412	85.93921	1199.67285	1220.15942	48.84057	1083.15076	1239.2948	10.37104	970.00726	1264.19836	4.62192	815.9483	1247.09387	-47.64091	844.26019	1280.50903	-52.51319	758.51642	1285.01709	294.23044	922.78564	866.64563	315.97427	952.49103	1085.89343	139.914	948.36676	904.50482	157.55014	965.62811	1070.46143	191.78099	604.59052	825.80371	172.22496	441.39816	844.18268	-39.1019	303.81525	861.66168	-176.69081	204.96207	903.46118	-201.73943	232.04837	952.15851	-147.37303	60.03792	906.46863	353.94092	636.15759	1160.052	402.91483	520.92468	1130.2688	403.31378	252.08447	1131.28381	399.4173	68.27692	1084.39819	361.85303	44.60262	1039.35986	552.7569	33.1342	1088.18091	180.50336	1670.56506	982.93732	NaN	NaN	NaN	NaN	NaN	NaN	NaN	NaN	NaN	NaN	NaN	NaN
